# xmcd CD database file
#
# Track frame offsets:
#	150
#	13918
#	28288
#	41533
#	51720
#	62722
#	76357
#	85032
#	95400
#	108363
#	125544
#
# Disc length: 1888 seconds
#
# Revision: 4
# Processed by: cddbd v1.5PL3 Copyright (c) Steve Scherf et al.
# Submitted via: CDex 1.51
#
DISCID=92075e0b
DTITLE=MONGOL800 - GO ON AS YOU ARE
DYEAR=1999
DGENRE=Pop
TTITLE0=DON'T WORRY BE HAPPY
TTITLE1=GEORGE
TTITLE2=HAPPY BIRTHDAY
TTITLE3=WISH
TTITLE4=HAPPY LIFE
TTITLE5=愛する花
TTITLE6=PART TIME JOB SONG
TTITLE7=MISS YOU
TTITLE8=ホルモン
TTITLE9=PARTY
TTITLE10=HAPPY BIRTHDAY
EXTD=YEAR: 1999
EXTT0=
EXTT1=
EXTT2=
EXTT3=
EXTT4=
EXTT5=
EXTT6=
EXTT7=
EXTT8=
EXTT9=
EXTT10=
PLAYORDER=
